<svg width="109" height="89" viewBox="0 0 109 89" fill="none" xmlns="http://www.w3.org/2000/svg">
<g clip-path="url(#clip0_128_83)">
<path d="M0 30.8607C0.426188 30.9428 103.943 30.6361 103.943 30.6361L109 54.1215L6.18071 56.899L0 30.8607Z" fill="#0C9090"/>
<path d="M69.3645 19.409C69.3645 18.8387 68.7577 18.2664 68.1488 18.2664C67.8267 18.2664 65.7822 18.9754 63.3429 19.9677C61.0117 20.8896 58.0342 22.0244 57.9969 21.9873C57.9616 21.9521 58.7157 20.8837 62.3825 15.8659C64.8277 12.4849 67.8837 8.03549 68.0271 7.60773C68.1704 7.21514 68.0997 6.85965 67.8503 6.50222C67.5636 6.14478 67.3495 6.07251 65.2362 5.46311C64.1973 5.17599 63.0149 4.8166 62.5848 4.67401L61.7973 4.42205L63.0169 4.28142C64.6293 4.10758 66.8526 3.79116 67.4634 3.64858C68.3609 3.43568 68.7557 3.08019 68.7557 2.43954C68.7557 2.04694 68.5063 1.65435 68.1488 1.47661C67.6834 1.22659 66.6071 1.2598 62.3413 1.67779C57.2702 2.16414 56.6103 2.27156 55.9661 2.58798C55.9504 2.1739 55.9269 1.94538 55.8895 1.73638C55.6774 0.630865 55.32 0.203112 54.6385 0.201159C53.957 0.201159 53.5622 0.626959 53.4169 1.51762C53.3796 1.80279 53.3069 2.83604 53.2676 3.83413C53.2303 4.83222 53.1557 5.75804 53.1203 5.90063L53.083 6.15064L52.4015 6.22095C52.044 6.25611 50.9324 6.28932 49.9642 6.28736L48.2083 6.28346V5.42795C48.2123 4.21501 48.0748 1.57817 47.9687 1.22073C47.7193 0.29296 46.753 -0.244173 45.9635 0.111311C45.6414 0.253896 45.3173 0.60938 45.1367 1.03713L44.9933 1.07229C44.8499 1.35746 44.8479 1.67779 44.844 3.81655C44.8421 5.13497 44.8028 6.27564 44.7674 6.3108C44.7321 6.34596 44.4807 6.41628 44.1939 6.45143C43.5851 6.48659 43.1903 6.66238 42.9389 7.05498C42.6875 7.44562 42.6856 8.08822 42.935 8.44566C43.2571 8.91053 43.5065 9.05311 44.188 9.09022L44.8322 9.12733L44.8185 10.6879C44.2627 10.6372 43.5085 10.6059 42.4636 10.5844L39.8476 10.6508L39.8221 5.87328C39.7985 0.562503 39.8339 0.810561 39.225 0.345696C38.8322 0.0605277 38.1861 -0.0136943 37.7913 0.201159C37.3965 0.414059 37.0725 0.841812 36.9291 1.33988L36.9645 1.41215C36.7838 2.01764 36.4852 7.15068 36.4813 9.68204C36.4813 10.5024 36.442 10.7876 36.3713 10.8227C36.2987 10.8579 35.4757 10.9282 34.5075 10.9614C32.571 11.0649 32.1055 11.1352 31.5674 11.3833C30.5991 11.8442 30.5598 13.1275 31.4908 13.6295L31.8482 13.8092L33.8908 13.6705C35.0378 13.6021 36.0414 13.5318 36.1494 13.5318H36.3281L36.3203 16.989C36.3163 18.9149 36.3458 22.122 36.3772 24.1182C36.4754 28.2532 36.4754 28.218 37.1569 28.6477C37.479 28.8626 37.587 28.8977 38.0172 28.8626C38.626 28.8274 39.0208 28.5794 39.2741 28.0813C39.4548 27.6535 39.606 24.1612 39.7258 17.8523C39.7671 15.3561 39.8437 13.2896 39.879 13.2545C39.9144 13.2193 40.9906 13.1509 42.281 13.1177C43.4201 13.0806 44.2234 13.0494 44.7988 13.0123L44.7871 14.442C44.736 21.1435 44.7301 24.2803 44.8008 24.7433C44.8362 25.0284 44.9442 25.2062 45.1936 25.4562C45.6218 25.8859 46.0519 25.9562 46.59 25.7452C47.3442 25.4269 47.4522 24.962 47.5661 21.4697C47.6427 18.7957 47.682 18.0125 47.8666 15.3737C47.9412 14.4108 48.0512 12.5572 48.1259 11.2739L48.2378 8.9574L48.6326 8.92225C48.8486 8.88709 49.9229 8.85388 50.9992 8.82068L52.971 8.75427L52.9259 13.4596C52.8787 18.5926 52.975 24.1182 53.1517 25.5441C53.2931 26.6144 53.4719 26.9348 54.008 27.1867C54.4735 27.4016 54.939 27.3313 55.2984 27.0109C55.6087 26.7648 55.7265 26.7414 55.7894 25.4601C56.5239 25.2237 57.6729 24.7999 59.5681 24.0967C64.6627 22.2178 66.1338 21.6162 67.8189 20.8349C69.1465 20.1962 69.3626 19.9833 69.3626 19.4129L69.3645 19.409ZM55.8876 19.9911C55.8876 19.9774 55.8876 19.9637 55.8876 19.9501C55.9308 16.4929 55.9779 11.145 55.9858 8.0433C55.9877 6.85575 55.9897 5.91039 55.9897 5.1506C56.7459 5.47873 58.9612 6.19947 60.8978 6.7366C62.7243 7.23858 64.8748 7.88509 64.9102 7.9222C64.9102 7.95736 64.6215 8.38511 64.2267 8.88318C63.2212 10.1645 57.6846 17.4597 56.8578 18.6356C56.5161 19.1082 56.19 19.5653 55.8876 19.993V19.9911Z" fill="white"/>
<path d="M25.3061 44.8906C25.2158 44.4258 24.3123 43.4648 23.6289 43.1328C23.073 42.8437 20.4747 42.2792 19.7932 42.287C18.986 42.2948 18.4812 42.8085 18.4891 43.6113C18.4969 44.4141 19.0115 44.832 20.2901 45.0293C20.6298 45.1094 20.9716 45.1914 21.058 45.2325C21.1444 45.2735 20.728 46.1231 19.7264 47.9513C18.9349 49.3967 17.8508 51.3948 17.3519 52.3734C16.8531 53.352 16.4367 54.1157 16.4367 54.1157C16.4367 54.1157 16.421 52.5941 16.4426 50.7346C16.4642 48.8752 16.4288 45.6192 16.364 43.4648C16.2207 38.0974 16.148 31.4193 16.2324 31.4193C16.2756 31.4193 17.0043 32.0444 17.8626 32.8393C20.4668 35.178 22.0236 36.3447 22.5329 36.3395C23.5523 36.3278 24.3045 35.1363 23.8292 34.2964C23.6564 34.0015 16.0537 26.7707 15.5824 26.4387C15.0678 26.1066 14.4295 26.0285 14.0504 26.2433C13.1627 26.7609 13.094 28.1555 13.2766 45.0196L13.2334 44.8926C13.3061 51.6136 13.3689 57.4029 13.3729 57.7408C13.3807 58.4596 13.6439 59.2174 14.0308 59.5514C14.1604 59.6764 14.4589 59.8425 14.7143 59.9675C15.1837 60.1745 15.2269 60.1726 15.7355 59.9987C16.7941 59.6921 17.5935 58.9225 18.4694 57.3912C19.1372 56.1997 20.7595 53.0121 21.1326 52.2054C21.4645 51.4827 22.2992 50.0374 22.3837 50.0354C22.4269 50.0354 22.4799 51.0491 22.4937 52.2738C22.5585 54.3012 22.5604 54.5141 22.7333 54.8071C23.3401 55.815 24.658 55.8442 25.1568 54.8657C25.3218 54.4829 25.3199 54.2289 25.3572 49.8342C25.3729 47.297 25.3474 45.0586 25.3041 44.8887L25.3061 44.8906Z" fill="white"/>
<path d="M40.2561 48.0275C39.549 45.5411 38.8852 43.0956 38.8832 42.9687C38.8832 42.8847 39.2642 42.8378 40.1991 42.7441C41.9392 42.5995 42.9998 42.3339 42.984 40.8963C42.9762 40.0936 42.7975 39.3338 40.1225 39.658L37.9994 39.8494L37.9091 39.3006C37.8639 39.0896 37.5104 37.7829 37.1549 36.3922C35.7349 30.8705 34.7215 27.5422 34.203 26.7023C33.9005 26.1984 33.2564 25.6125 32.9146 25.5324C32.3608 25.4113 32.1899 25.4132 31.8933 25.5011C31.7244 25.546 31.3866 25.7179 31.1745 25.8468L30.9604 25.7218C30.2004 26.2375 30.0393 26.9152 29.0023 33.3101C27.2897 43.9804 26.3568 51.8949 26.3941 55.4458C26.4059 56.5455 26.4511 56.7564 26.6671 57.1334C27.1876 58.1432 28.5919 58.1705 29.1752 57.192C29.3834 56.8521 29.5032 56.1743 30.0491 51.6019C30.2848 49.7815 30.6403 47.2833 30.8387 46.0567C31.039 44.8281 31.2374 43.6425 31.2766 43.3886L31.3572 42.9238L32.9716 42.9062C34.1186 42.8945 34.5879 42.9316 34.6724 43.0156C34.7156 43.0995 34.8492 43.5644 34.9808 44.0683C35.1143 44.5313 35.5994 46.2598 36.0845 47.9025C36.5696 49.5451 37.4534 52.6215 38.0289 54.7719C39.1798 59.0299 39.7945 60.8816 40.1834 61.4285C40.8295 62.3094 42.1493 62.4227 42.8623 61.6121C43.4083 61.0144 43.4456 60.5066 43.0862 58.692C42.8623 57.5533 41.2223 51.3987 40.2502 48.0275H40.2561ZM33.3663 39.8162H33.3231C33.0266 39.8201 32.6004 39.867 32.3883 39.9119L32.0073 39.9588L32.0446 39.5349C32.1192 38.6033 32.7182 35.0054 32.7614 35.0465C32.8046 35.0875 33.0698 36.0582 33.3369 37.1969C34.0479 40.1482 34.0459 39.8103 33.3644 39.8182L33.3663 39.8162Z" fill="white"/>
<path d="M76.7688 48.3107C76.3858 48.3146 73.9721 49.1858 71.0968 50.4007C68.3472 51.5296 64.8336 52.9203 64.7904 52.8773C64.7472 52.8363 65.627 51.5589 69.8968 45.5528C72.7426 41.5057 76.2994 36.1852 76.4624 35.6754C76.6274 35.2086 76.537 34.7867 76.2365 34.3667C75.8928 33.9468 75.6356 33.8667 73.1197 33.1733C71.8843 32.8491 70.4761 32.4409 69.9655 32.2768L69.0267 31.9916L70.4702 31.8061C72.3812 31.5737 75.011 31.1654 75.7318 30.9896C76.7924 30.724 77.2539 30.2963 77.246 29.5365C77.2401 29.0716 76.9377 28.6106 76.5115 28.4036C75.9557 28.1145 74.6811 28.1692 69.6297 28.7317C63.6021 29.388 62.8381 29.5228 62.0761 29.9115L62.0329 29.8705C61.3985 30.1732 61.1039 30.472 60.9409 31.0228C60.6522 31.8295 60.9547 32.3745 61.9818 32.8706C62.6653 33.2007 65.5229 34.1011 67.9956 34.7515C70.1697 35.3199 72.7269 36.0543 72.7701 36.0953C72.7701 36.1383 72.4362 36.6481 71.9747 37.2458C70.8022 38.781 64.3504 47.5158 63.3881 48.9201C62.3373 50.4124 61.4162 51.7699 60.8152 52.7289C60.7642 51.4827 60.6836 49.8889 60.5717 47.8927C60.4676 46.1602 60.3301 41.3846 60.2457 37.3278C60.1494 32.3413 60.0355 29.763 59.9471 29.4681C59.7252 28.5833 58.8689 27.9583 57.9753 27.968C57.2093 27.9758 56.5376 28.5755 56.2489 29.4661C55.9209 30.5267 55.0509 32.6909 54.1396 34.857C53.5995 36.0895 52.9376 37.7028 52.6489 38.4665C52.3602 39.2302 52.0695 39.91 52.0283 39.9529C51.987 39.9959 51.7671 39.406 51.5039 38.6482C50.7988 36.3727 49.3101 32.3725 48.3517 30.2279C47.568 28.4192 46.8335 27.4114 46.1088 27.1672C45.7258 27.0442 45.0875 27.093 44.7065 27.2668C44.241 27.4836 43.9504 28.0774 43.7913 29.136V29.0521C43.6715 29.7728 43.695 31.9702 43.8148 43.1288C43.9543 56.063 43.9582 56.3579 44.131 56.6529C44.3903 57.0728 44.9461 57.4049 45.4567 57.483C46.1815 57.6021 46.9396 57.1295 47.187 56.4068C47.2283 56.2798 47.2656 55.772 47.3029 55.2641C47.3402 54.7563 47.3697 53.6156 47.4031 52.684C47.4365 51.7542 47.4384 48.0763 47.4423 44.4824L47.4129 37.9314L48.114 39.783C49.8227 44.4141 50.8617 46.1798 51.881 46.168C52.264 46.1641 52.9808 45.7754 53.2322 45.4356C53.4404 45.0957 54.2712 43.1835 55.3042 40.5526C55.7167 39.492 56.0898 38.5994 56.133 38.5564C56.1743 38.5134 56.2764 39.992 56.3393 41.8514C56.5258 47.3868 57.0424 55.7935 57.2604 56.2974C57.392 56.6763 57.9517 57.2623 58.3347 57.4264C58.9789 57.6803 59.6997 57.5357 60.2221 57.1041C60.2732 57.1412 60.3242 57.1724 60.3733 57.192C61.0136 57.524 61.2689 57.4361 66.6856 55.3481C72.6955 53.0433 74.4316 52.307 76.4192 51.3558C77.9825 50.5784 78.2359 50.3225 78.228 49.6448C78.2202 48.9689 77.4915 48.301 76.7688 48.3068V48.3107Z" fill="white"/>
<path d="M94.7217 53.9106C94.4193 53.4907 93.4255 51.8949 92.5161 50.3831C90.4814 47.0236 88.8395 44.4199 87.7593 42.8671L86.9816 41.6913L88.3839 41.5917C90.5914 41.4413 91.9505 41.2147 92.4572 40.9139C92.6261 40.828 92.795 40.6151 92.8775 40.4022C92.96 40.1893 93.0857 39.9354 93.1682 39.8065C93.4176 39.3396 93.4137 38.9158 93.1525 38.4119C92.6733 37.4021 89.8844 34.8551 84.395 30.39C80.7498 27.427 79.8523 26.9719 78.9665 27.5735C78.5161 27.8886 78.3511 29.666 78.4716 32.9058L78.6857 33.0308C78.7957 35.3961 78.8644 37.7204 78.8683 38.1853L78.8781 39.031L78.0277 39.0818C77.0929 39.1346 76.4997 39.3514 76.1659 39.7791C75.8713 40.1209 75.832 40.3749 75.9223 40.9237C75.9695 41.3026 76.0559 41.4726 76.3564 41.7655L76.7433 42.1425L77.849 42.1308C78.4873 42.1249 78.996 42.1191 79.0392 42.1171C79.1688 42.2421 79.8641 51.5765 79.8876 53.7739C79.8975 54.7036 80.029 55.1255 80.416 55.5435C81.0189 56.1705 81.9538 56.1607 82.6687 55.52C83.2166 55.0493 83.2559 54.7524 83.1007 52.2191C82.9515 50.1917 82.8454 48.2912 82.6235 43.5586L82.5194 41.7851L83.0281 41.7382C83.3246 41.6933 83.6232 41.6894 83.6644 41.6894C83.7076 41.6894 84.3557 42.7382 85.0922 43.9981C86.5652 46.5607 87.8202 48.5764 90.7171 53.1957C92.2314 55.5884 92.8363 56.4693 93.2212 56.8463C93.8654 57.4733 94.0795 57.5983 94.5469 57.5924C95.2265 57.5846 95.8589 57.0279 95.851 56.3951C95.8471 56.0142 95.2815 54.7524 94.7178 53.9126L94.7217 53.9106ZM76.3544 41.6796L76.3112 41.6386C76.1403 41.5136 76.1384 41.4706 76.266 41.4706C76.3092 41.4706 76.3937 41.5546 76.4389 41.6386C76.4677 41.7232 76.4395 41.7375 76.3544 41.6815V41.6796ZM82.3132 38.5291C82.27 38.488 81.9675 34.0953 81.9557 33.0796L81.9479 32.4038L82.2916 32.6968C82.4644 32.8648 83.3207 33.6148 84.1377 34.3668C84.9528 35.1188 86.3688 36.3298 87.2703 37.0817V37.0388L88.8572 38.3748L87.7947 38.4295C86.4788 38.5291 82.3976 38.6131 82.3132 38.531V38.5291Z" fill="white"/>
<path d="M55.5341 81.5192C55.1884 81.697 54.6228 82.0036 54.2771 82.1814C53.9314 82.3591 52.9671 82.949 52.1304 83.49L50.5828 84.4901L50.4296 83.0408C50.3609 82.2497 50.2018 80.4996 50.0604 79.15C49.7599 76.0522 48.0198 61.825 47.8902 61.3406C47.6977 60.6316 46.9416 60.2273 46.2679 60.4812C45.7239 60.6843 45.4784 61.116 45.443 61.8875L45.4548 61.9852C45.4411 62.6551 45.7789 66.0478 46.2993 70.5871C46.4486 71.9036 46.7078 74.1947 46.973 76.5463C46.8532 76.5639 46.7334 76.5991 46.6155 76.6538C46.3641 76.7866 45.0561 78.0874 42.6345 80.6344C42.1003 81.1696 41.6525 81.5954 41.6152 81.5661C41.5406 81.5095 41.0476 77.7007 40.205 70.6672C39.8221 67.4463 39.6806 66.0967 39.7514 66.1201C39.7887 66.1494 40.4329 66.4658 41.187 66.8369C42.6541 67.5499 43.3946 67.8233 43.7245 67.7803C44.5828 67.671 44.9422 66.5557 44.3 66.0049C43.6577 65.4521 41.4856 64.2294 39.5962 63.37C38.2391 62.743 37.6243 62.6551 37.098 62.9891C36.5657 63.2919 36.5677 63.5575 36.9487 67.2803L36.9566 67.3467C37.2571 70.4445 38.8283 83.3591 39.1072 84.992C39.2937 86.1698 39.2977 86.203 39.5294 86.4394C39.9144 86.8241 40.2286 86.9179 40.6862 86.8261C40.8807 86.7675 41.136 86.6679 41.2263 86.5898C41.5072 86.4198 43.8738 83.7146 45.6748 81.5485C46.154 81.0016 46.8453 80.1793 47.3186 79.6383C47.3442 79.8707 47.3697 80.1012 47.3933 80.3258L48.0394 86.3495L47.7763 86.6503C47.4836 86.9882 47.2794 87.4824 47.3265 87.8418C47.411 88.498 48.0493 89.0176 48.717 88.9981C49.0843 88.9844 49.2119 88.9356 49.9524 88.4394C50.4178 88.1465 51.8142 87.2675 53.0908 86.5019C55.5792 84.9823 57.6002 83.4881 57.8987 82.949C58.1442 82.5173 58.101 81.9216 57.7809 81.529C57.2997 80.9235 56.5612 80.9176 55.5321 81.5173L55.5341 81.5192Z" fill="white"/>
<path d="M66.1927 66.1396C65.4994 61.5574 64.9966 58.7174 64.8474 58.3366C64.594 57.6686 63.8202 57.401 63.2644 57.7721C62.8932 58.0201 62.7636 58.3033 62.74 58.9069L62.7537 59.0045C62.7341 59.3737 63.1053 62.4969 63.9498 69.0284C65.0673 77.6616 65.2893 79.6363 65.2382 80.277C65.2264 80.4449 65.1695 80.5192 64.9789 80.611C64.5017 80.8063 61.6716 81.7692 61.6362 81.7399C61.5989 81.7106 61.5086 80.7555 61.4261 79.5972C61.1531 76.1948 60.3694 69.3546 59.9138 66.6103C59.3521 63.0457 58.9632 60.8249 58.8257 60.5437C58.6333 60.1003 58.1207 59.7663 57.7259 59.8171C57.6277 59.8288 57.3429 59.9655 57.0621 60.1355C56.2588 60.6726 56.2627 60.4382 56.9148 64.6923C57.9125 71.1047 58.101 72.8157 58.5645 80.0309C58.7177 82.2478 58.7865 83.0388 58.8906 83.3259C59.2696 84.4451 60.2752 84.951 61.5793 84.6502C62.6889 84.408 67.1413 82.7693 67.5027 82.4567C68.0506 82.0192 68.2961 81.32 68.2922 80.2535C68.3099 79.3511 67.8896 76.3666 67.2749 72.9095C66.9881 71.2102 66.4932 68.171 66.1966 66.1396H66.1927Z" fill="white"/>
<path d="M73.2651 65.8349C74.7125 64.3153 76.0245 62.7782 76.8867 61.6668C77.9178 60.2995 78.0651 59.8815 77.6782 59.2292C77.3325 58.6393 77.1931 58.5905 74.7695 58.2662C73.7777 58.1256 72.2418 57.9225 71.3168 57.774C69.6061 57.526 69.1033 57.524 68.4218 57.7115C68.0015 57.8326 67.7246 58.0338 67.5046 58.3971L67.6127 58.4498C67.4732 58.6686 67.485 58.7663 68.1233 63.9579C68.465 66.8506 68.8519 70.3722 68.9973 71.7551C69.3881 75.81 70.0028 81.07 70.1992 82.0798C70.3976 83.0896 70.484 83.2439 70.9888 83.5135C71.2775 83.6775 71.6781 83.658 72.0238 83.4802C72.1515 83.4314 72.3734 83.3357 72.5344 83.281C72.8899 83.1697 73.2336 82.7243 73.5989 81.9099C74.6556 79.439 76.4683 74.2669 77.0006 72.1633C77.3384 70.8859 77.3541 70.7492 77.2873 70.2238C77.14 69.341 77.2147 69.3996 74.1155 67.7608C73.1806 67.2803 72.4186 66.8428 72.4146 66.8115C72.4107 66.7783 72.7878 66.3291 73.2611 65.8349H73.2651ZM73.1158 69.8586C74.088 70.3683 74.8853 70.8332 74.8952 70.8996L74.8991 70.9328C74.9207 71.0969 72.5776 77.3706 72.2791 77.9097C72.2261 78.0171 72.1574 77.4917 71.8431 74.7963C71.4091 71.1809 71.1812 68.9073 71.2853 68.9269C71.3187 68.923 72.1456 69.3507 73.1178 69.8605L73.1158 69.8586ZM70.6549 65.1005C70.5842 65.0771 69.9223 59.9558 69.9871 59.946C70.0205 59.9421 70.8749 60.0652 71.904 60.2351C72.9331 60.4031 73.9623 60.573 74.1999 60.6081L74.2608 60.5671L74.7066 60.6433L73.7207 61.8367C72.558 63.2196 70.757 65.1201 70.6529 65.0986L70.6549 65.1005Z" fill="white"/>
</g>
<defs>
<clipPath id="clip0_128_83">
<rect width="109" height="89" fill="white"/>
</clipPath>
</defs>
</svg>
